newest.ufo
<glyph name="A" format="2">
  <advance width="537"/>
  <unicode hex="0041"/>
  <outline>
    <contour>
      <point x="24" y="11" type="line"/>
      <point x="24" y="262"/>
      <point x="68" y="509"/>
      <point x="156" y="752" type="curve"/>
      <point x="395" y="753" type="line"/>
      <point x="492" y="505"/>
      <point x="540" y="252"/>
      <point x="537" y="-6" type="curve"/>
      <point x="282" y="20" type="line"/>
    </contour>
  </outline>
</glyph>
<glyph name="B" format="2">
  <advance width="500"/>
  <unicode hex="0042"/>
  <outline>
    <contour>
      <point x="528" y="495" type="curve"/>
      <point x="528" y="622"/>
      <point x="458" y="666"/>
      <point x="401" y="666" type="curve" smooth="yes"/>
      <point x="254" y="666"/>
      <point x="235" y="516"/>
      <point x="111" y="515" type="curve"/>
      <point x="188" y="424"/>
      <point x="36" y="327"/>
      <point x="36" y="203" type="curve" smooth="yes"/>
      <point x="36" y="51"/>
      <point x="105" y="5"/>
      <point x="201" y="5" type="curve"/>
      <point x="364" y="5"/>
      <point x="451" y="184"/>
      <point x="373" y="331" type="curve"/>
      <point x="445" y="339"/>
      <point x="528" y="369"/>
    </contour>
  </outline>
</glyph>
<glyph name="C" format="2">
  <advance width="520"/>
  <unicode hex="0043"/>
  <outline>
    <contour>
      <point x="484" y="705" type="line"/>
      <point x="484" y="705" type="line"/>
      <point x="189" y="717" type="line"/>
      <point x="45" y="300" type="line"/>
      <point x="190" y="-15" type="line"/>
      <point x="520" y="-8" type="line"/>
      <point x="434" y="343" type="line"/>
    </contour>
  </outline>
</glyph>
<glyph name="D" format="2">
  <advance width="512"/>
  <unicode hex="0044"/>
  <outline>
    <contour>
      <point x="20" y="748" type="line"/>
      <point x="20" y="-4" type="line"/>
      <point x="380" y="0" type="line"/>
      <point x="581" y="186"/>
      <point x="599" y="569"/>
      <point x="364" y="750" type="curve"/>
    </contour>
  </outline>
</glyph>
<glyph name="E" format="2">
  <advance width="622"/>
  <unicode hex="0045"/>
  <outline>
    <contour>
      <point x="83" y="-8" type="line"/>
      <point x="34" y="744" type="line"/>
      <point x="616" y="743" type="line"/>
      <point x="616" y="630" type="line"/>
      <point x="471" y="593" type="line"/>
      <point x="505" y="673" type="line"/>
      <point x="535" y="338" type="line"/>
      <point x="453" y="360" type="line"/>
      <point x="581" y="439" type="line"/>
      <point x="615" y="345" type="line"/>
      <point x="481" y="246" type="line"/>
      <point x="540" y="303" type="line"/>
      <point x="548" y="18" type="line"/>
      <point x="380" y="113" type="line"/>
      <point x="665" y="139" type="line"/>
      <point x="638" y="7" type="line"/>
    </contour>
  </outline>
</glyph>
<glyph name="F" format="2">
  <advance width="605"/>
  <unicode hex="0046"/>
  <outline>
    <contour>
      <point x="149" y="-2" type="line"/>
      <point x="68" y="629" type="line"/>
      <point x="451" y="738" type="line"/>
      <point x="516" y="592" type="line"/>
      <point x="176" y="568" type="line"/>
      <point x="195" y="614" type="line"/>
      <point x="249" y="349" type="line"/>
      <point x="206" y="362" type="line"/>
      <point x="526" y="415" type="line"/>
      <point x="522" y="326" type="line"/>
      <point x="239" y="280" type="line"/>
      <point x="257" y="312" type="line"/>
      <point x="305" y="0" type="line"/>
    </contour>
  </outline>
</glyph>
<glyph name="G" format="2">
  <advance width="500"/>
  <unicode hex="0047"/>
  <outline>
    <contour>
      <point x="59" y="359" type="curve" smooth="yes"/>
      <point x="59" y="189"/>
      <point x="76" y="31"/>
      <point x="253" y="31" type="curve" smooth="yes"/>
      <point x="430" y="31"/>
      <point x="439" y="268"/>
      <point x="439" y="382" type="curve" smooth="yes"/>
      <point x="439" y="496"/>
      <point x="254" y="387"/>
      <point x="254" y="387" type="curve"/>
      <point x="254" y="280" type="line"/>
      <point x="386" y="273" type="line"/>
      <point x="354" y="310" type="line"/>
      <point x="354" y="310"/>
      <point x="313" y="155"/>
      <point x="249" y="155" type="curve" smooth="yes"/>
      <point x="185" y="155"/>
      <point x="183" y="298"/>
      <point x="183" y="376" type="curve" smooth="yes"/>
      <point x="183" y="454"/>
      <point x="206" y="515"/>
      <point x="295" y="515" type="curve" smooth="yes"/>
      <point x="384" y="515"/>
      <point x="412" y="500"/>
      <point x="430" y="493" type="curve" smooth="yes"/>
      <point x="448" y="486"/>
      <point x="431" y="645"/>
      <point x="267" y="645" type="curve" smooth="yes"/>
      <point x="103" y="645"/>
      <point x="59" y="529"/>
    </contour>
  </outline>
</glyph>
<glyph name="H" format="2">
  <advance width="500"/>
  <unicode hex="0048"/>
  <outline>
    <contour>
      <point x="33" y="638" type="line"/>
      <point x="33" y="-5" type="line"/>
      <point x="113" y="-5" type="line"/>
      <point x="113" y="635" type="line"/>
    </contour>
    <contour>
      <point x="385" y="638" type="line"/>
      <point x="385" y="-5" type="line"/>
      <point x="465" y="-5" type="line"/>
      <point x="465" y="635" type="line"/>
    </contour>
    <contour>
      <point x="85" y="359" type="line"/>
      <point x="75" y="251" type="line"/>
      <point x="410" y="274" type="line"/>
      <point x="436" y="331" type="line"/>
    </contour>
  </outline>
</glyph>
<glyph name="I" format="2">
  <advance width="500"/>
  <unicode hex="0049"/>
  <outline>
    <contour>
      <point x="150" y="695" type="curve" smooth="yes"/>
      <point x="132" y="732"/>
      <point x="354" y="710"/>
      <point x="354" y="710" type="curve"/>
      <point x="354" y="710"/>
      <point x="334" y="15"/>
      <point x="348" y="4" type="curve" smooth="yes"/>
      <point x="362" y="-7"/>
      <point x="154" y="-28"/>
      <point x="184" y="-4" type="curve" smooth="yes"/>
      <point x="214" y="20"/>
      <point x="168" y="658"/>
    </contour>
  </outline>
</glyph>
<glyph name="J" format="2">
  <advance width="500"/>
  <unicode hex="004A"/>
  <outline>
    <contour>
      <point x="230" y="728" type="curve" smooth="yes"/>
      <point x="270" y="797"/>
      <point x="415" y="751"/>
      <point x="415" y="751" type="curve"/>
      <point x="415" y="751"/>
      <point x="459" y="53"/>
      <point x="200" y="-5" type="curve" smooth="yes"/>
      <point x="62" y="-36"/>
      <point x="-34" y="39"/>
      <point x="-11" y="182" type="curve"/>
      <point x="88" y="248" type="line"/>
      <point x="105" y="230"/>
      <point x="145" y="51"/>
      <point x="186" y="85" type="curve" smooth="yes"/>
      <point x="227" y="119"/>
      <point x="190" y="659"/>
    </contour>
  </outline>
</glyph>
<glyph name="K" format="2">
  <advance width="528"/>
  <unicode hex="004B"/>
  <outline>
    <contour>
      <point x="40" y="641" type="line"/>
      <point x="85" y="341" type="line"/>
      <point x="-45" y="-1" type="line"/>
      <point x="208" y="15" type="line"/>
      <point x="145" y="316" type="line"/>
      <point x="322" y="226" type="line"/>
      <point x="299" y="12" type="line"/>
      <point x="528" y="6" type="line"/>
      <point x="374" y="324" type="line"/>
      <point x="144" y="338" type="line"/>
      <point x="482" y="587" type="line"/>
      <point x="349" y="716" type="line"/>
      <point x="145" y="365" type="line"/>
      <point x="168" y="636" type="line"/>
    </contour>
  </outline>
</glyph>
<glyph name="L" format="2">
  <advance width="696"/>
  <unicode hex="004C"/>
  <outline>
    <contour>
      <point x="129" y="750" type="line"/>
      <point x="315" y="749" type="line"/>
      <point x="315" y="73" type="line"/>
      <point x="273" y="111" type="line"/>
      <point x="620" y="198" type="line"/>
      <point x="621" y="2" type="line"/>
      <point x="121" y="2" type="line"/>
    </contour>
  </outline>
</glyph>
<glyph name="M" format="2">
  <advance width="721"/>
  <unicode hex="004D"/>
  <outline>
    <contour>
      <point x="25" y="0" type="line"/>
      <point x="223" y="0" type="line"/>
      <point x="133" y="750" type="line"/>
      <point x="296" y="750" type="line"/>
    </contour>
    <contour>
      <point x="425" y="0" type="line"/>
      <point x="623" y="0" type="line"/>
      <point x="533" y="750" type="line"/>
      <point x="696" y="750" type="line"/>
    </contour>
    <contour>
      <point x="317" y="750" type="line"/>
      <point x="318" y="14" type="line"/>
      <point x="521" y="750" type="line"/>
    </contour>
  </outline>
</glyph>
<glyph name="N" format="2">
  <advance width="607"/>
  <unicode hex="004E"/>
  <outline>
    <contour>
      <point x="15" y="0" type="line"/>
      <point x="176" y="767" type="line"/>
      <point x="446" y="171" type="line"/>
      <point x="514" y="634" type="line"/>
      <point x="418" y="750" type="line"/>
      <point x="592" y="750" type="line"/>
      <point x="470" y="-17" type="line"/>
      <point x="174" y="625" type="line"/>
      <point x="203" y="627" type="line"/>
      <point x="91" y="86" type="line"/>
      <point x="207" y="0" type="line"/>
    </contour>
  </outline>
</glyph>
<glyph name="O" format="2">
  <advance width="500"/>
  <unicode hex="004F"/>
  <outline>
    <contour>
      <point x="484" y="705" type="line"/>
      <point x="484" y="705" type="line"/>
      <point x="189" y="717" type="line"/>
      <point x="45" y="300" type="line"/>
      <point x="190" y="-15" type="line"/>
      <point x="520" y="-8" type="line"/>
      <point x="716" y="343" type="line"/>
    </contour>
  </outline>
</glyph>
<glyph name="P" format="2">
  <advance width="500"/>
  <unicode hex="0050"/>
  <outline>
    <contour>
      <point x="31" y="3" type="line"/>
      <point x="276" y="3" type="line"/>
      <point x="258" y="104" type="line"/>
      <point x="258" y="104"/>
      <point x="508" y="78"/>
      <point x="508" y="340" type="curve" smooth="yes"/>
      <point x="508" y="602"/>
      <point x="134" y="571"/>
      <point x="42" y="571" type="curve"/>
    </contour>
  </outline>
</glyph>
<glyph name="Q" format="2">
  <advance width="716"/>
  <unicode hex="0051"/>
  <outline>
    <contour>
      <point x="484" y="705" type="line"/>
      <point x="484" y="705" type="line"/>
      <point x="189" y="717" type="line"/>
      <point x="45" y="300" type="line"/>
      <point x="190" y="-15" type="line"/>
      <point x="520" y="-8" type="line"/>
      <point x="716" y="343" type="line"/>
    </contour>
    <contour>
      <point x="373" y="62" type="line"/>
      <point x="470" y="-196" type="line"/>
      <point x="651" y="-118" type="line"/>
      <point x="386" y="208" type="line"/>
    </contour>
  </outline>
</glyph>
<glyph name="R" format="2">
  <advance width="500"/>
  <unicode hex="0052"/>
  <outline>
    <contour>
      <point x="13" y="691" type="line"/>
      <point x="87" y="353" type="line"/>
      <point x="-35" y="8" type="line"/>
      <point x="99" y="54" type="line"/>
      <point x="216" y="15" type="line"/>
      <point x="157" y="332" type="line"/>
      <point x="441" y="-30" type="line"/>
      <point x="468" y="94" type="line"/>
      <point x="585" y="136" type="line"/>
      <point x="231" y="359" type="line"/>
      <point x="489" y="499" type="line"/>
      <point x="245" y="691" type="line"/>
      <point x="132" y="653" type="line"/>
    </contour>
    <contour>
      <point x="166" y="382" type="line"/>
      <point x="230" y="629" type="line"/>
      <point x="241" y="535" type="line"/>
      <point x="383" y="504" type="line"/>
    </contour>
  </outline>
</glyph>
<glyph name="S" format="2">
  <advance width="500"/>
  <unicode hex="0053"/>
  <outline>
    <contour>
      <point x="298" y="694" type="line"/>
      <point x="400" y="512" type="line"/>
      <point x="158" y="440" type="line"/>
      <point x="463" y="362" type="line"/>
      <point x="492" y="221" type="line"/>
      <point x="-32" y="-88" type="line"/>
      <point x="-61" y="314" type="line"/>
      <point x="357" y="327" type="line"/>
      <point x="-14" y="427" type="line"/>
      <point x="-80" y="546" type="line"/>
    </contour>
  </outline>
</glyph>
<glyph name="T" format="2">
  <advance width="983"/>
  <unicode hex="0054"/>
  <outline>
    <contour>
      <point x="38" y="566" type="line"/>
      <point x="38" y="438" type="line"/>
      <point x="946" y="438" type="line"/>
      <point x="946" y="537" type="line"/>
    </contour>
    <contour>
      <point x="414" y="470" type="line"/>
      <point x="601" y="467" type="line"/>
      <point x="612" y="0" type="line"/>
      <point x="428" y="-5" type="line"/>
    </contour>
  </outline>
</glyph>
<glyph name="U" format="2">
  <advance width="500"/>
  <unicode hex="0055"/>
  <outline>
    <contour>
      <point x="-33" y="630" type="curve" smooth="yes"/>
      <point x="-27" y="671"/>
      <point x="57" y="674"/>
      <point x="57" y="674" type="curve"/>
      <point x="57" y="674"/>
      <point x="32" y="135"/>
      <point x="190" y="135" type="curve" smooth="yes"/>
      <point x="395" y="135"/>
      <point x="355" y="615"/>
      <point x="353" y="657" type="curve" smooth="yes"/>
      <point x="351" y="699"/>
      <point x="479" y="653"/>
      <point x="479" y="653" type="curve"/>
      <point x="479" y="653"/>
      <point x="460" y="3"/>
      <point x="198" y="3" type="curve" smooth="yes"/>
      <point x="-68" y="3"/>
      <point x="-39" y="589"/>
    </contour>
  </outline>
</glyph>
<glyph name="V" format="2">
  <advance width="612"/>
  <unicode hex="0056"/>
  <outline>
    <contour>
      <point x="33" y="658" type="line"/>
      <point x="148" y="708" type="line"/>
      <point x="371" y="112" type="line"/>
      <point x="318" y="114" type="line"/>
      <point x="473" y="705" type="line"/>
      <point x="566" y="645" type="line"/>
      <point x="378" y="-62" type="line"/>
    </contour>
  </outline>
</glyph>
<glyph name="W" format="2">
	<advance width="2088"/>
	<unicode hex="0057"/>
	<outline>
		<contour>
			<point x="5" y="452" type="line"/>
			<point x="351" y="676" type="line"/>
			<point x="715" y="143" type="line"/>
			<point x="595" y="152" type="line"/>
			<point x="807" y="685" type="line"/>
			<point x="1190" y="685" type="line"/>
			<point x="1369" y="139" type="line"/>
			<point x="1153" y="199" type="line"/>
			<point x="1764" y="716" type="line"/>
			<point x="2083" y="338" type="line"/>
			<point x="1493" y="14" type="line"/>
			<point x="1021" y="1" type="line"/>
			<point x="971" y="153" type="line"/>
			<point x="838" y="21" type="line"/>
			<point x="233" y="43" type="line"/>
		</contour>
	</outline>
</glyph>
<glyph name="X" format="2">
  <advance width="1061"/>
  <unicode hex="0058"/>
  <outline>
    <contour>
      <point x="803" y="-63" type="line"/>
      <point x="986" y="58" type="line"/>
      <point x="261" y="730" type="line"/>
      <point x="142" y="568" type="line"/>
    </contour>
    <contour>
      <point x="209" y="-19" type="line"/>
      <point x="521" y="318" type="line"/>
      <point x="482" y="357" type="line"/>
      <point x="150" y="25" type="line"/>
    </contour>
    <contour>
      <point x="585" y="362" type="line"/>
      <point x="913" y="674" type="line"/>
      <point x="854" y="721" type="line"/>
      <point x="540" y="399" type="line"/>
    </contour>
  </outline>
</glyph>
<glyph name="Y" format="2">
  <advance width="525"/>
  <unicode hex="0059"/>
  <outline>
    <contour>
      <point x="-29.99495893584026" y="669" type="curve"/>
      <point x="94.00504106415974" y="766" type="line"/>
      <point x="94.00504106415974" y="766"/>
      <point x="109.00504106415974" y="448"/>
      <point x="253.00504106415974" y="455" type="curve" smooth="yes"/>
      <point x="397.00504106415974" y="462"/>
      <point x="447.00504106415974" y="763"/>
      <point x="447.00504106415974" y="763" type="curve"/>
      <point x="447.00504106415974" y="763"/>
      <point x="471.00504106415974" y="748"/>
      <point x="519.0050410641597" y="697" type="curve" smooth="yes"/>
      <point x="567.0050410641597" y="646"/>
      <point x="315.00504106415974" y="125"/>
      <point x="216.00504106415974" y="154" type="curve" smooth="yes"/>
      <point x="117.00504106415974" y="183"/>
      <point x="-30.99495893584026" y="666"/>
    </contour>
    <contour>
      <point x="153.00504106415974" y="266" type="line"/>
      <point x="290.00504106415974" y="268" type="line"/>
      <point x="325.00504106415974" y="2" type="line"/>
      <point x="152.00504106415974" y="-1" type="line"/>
    </contour>
  </outline>
</glyph>
<glyph name="Z" format="2">
  <advance width="500"/>
  <unicode hex="005A"/>
  <outline>
    <contour>
      <point x="40" y="656" type="line"/>
      <point x="56" y="407" type="line"/>
      <point x="304" y="644" type="line"/>
      <point x="12" y="0" type="line"/>
      <point x="449" y="-4" type="line"/>
      <point x="460" y="432" type="line"/>
      <point x="253" y="8" type="line"/>
      <point x="489" y="667" type="line"/>
    </contour>
  </outline>
</glyph>
